<svg xmlns:sketch="http://www.bohemiancoding.com/sketch/ns" xmlns:osb="http://www.openswatchbook.org/uri/2009/osb" xmlns:dc="http://purl.org/dc/elements/1.1/" xmlns:cc="http://creativecommons.org/ns#" xmlns:rdf="http://www.w3.org/1999/02/22-rdf-syntax-ns#" xmlns:svg="http://www.w3.org/2000/svg" xmlns="http://www.w3.org/2000/svg" xmlns:xlink="http://www.w3.org/1999/xlink" version="1.1" height="82" width="83" style=""><rect id="backgroundrect" width="100%" height="100%" x="0" y="0" fill="none" stroke="none"/>
  <metadata id="metadata3360">
    <rdf:RDF>
      <cc:Work rdf:about="">
        <dc:format>image/svg+xml</dc:format>
        <dc:type rdf:resource="http://purl.org/dc/dcmitype/StillImage"/>
        <dc:title>icon</dc:title>
      </cc:Work>
    </rdf:RDF>
  </metadata>
  <!-- Generator: Sketch 3.4 (15575) - http://www.bohemiancoding.com/sketch -->
  <title id="title3338">icon</title>
  <desc id="desc3340">Created with Sketch.</desc>
  <defs id="defs3342">
    <linearGradient osb:paint="solid" id="linearGradient4174">
      <stop id="stop4176" offset="0" style="stop-color: rgb(255, 255, 255); stop-opacity: 1;"/>
    </linearGradient>
    <linearGradient id="linearGradient-1" y2="100%" x2="91.4586509%" y1="0%" x1="18.2879192%">
      <stop id="stop3345" offset="0%" stop-color="#2F1645"/>
      <stop id="stop3347" offset="25.361152%" stop-color="#513764"/>
      <stop id="stop3349" offset="62.0315599%" stop-color="#5B3461"/>
      <stop id="stop3351" offset="100%" stop-color="#864059"/>
    </linearGradient>
    <linearGradient y2="24.027671813964844" x2="20.3583984375" y1="24.027671813964844" x1="13.2001953125" gradientUnits="userSpaceOnUse" id="linearGradient4182" xlink:href="#linearGradient4174"/>
    <linearGradient y2="24.027671813964844" x2="20.3583984375" y1="24.027671813964844" x1="13.2001953125" gradientUnits="userSpaceOnUse" id="linearGradient4184" xlink:href="#linearGradient4174"/>
    <linearGradient y2="24.027671813964844" x2="20.3583984375" y1="24.027671813964844" x1="13.2001953125" gradientUnits="userSpaceOnUse" id="linearGradient4188" xlink:href="#linearGradient4174"/>
    <linearGradient y2="24.027671813964844" x2="20.3583984375" y1="24.027671813964844" x1="13.2001953125" gradientUnits="userSpaceOnUse" id="linearGradient4192" xlink:href="#linearGradient4174"/>
    <linearGradient y2="24.027671813964844" x2="20.3583984375" y1="24.027671813964844" x1="13.2001953125" gradientUnits="userSpaceOnUse" id="linearGradient3365" xlink:href="#linearGradient4174"/>
    <linearGradient y2="24.027671813964844" x2="20.3583984375" y1="24.027671813964844" x1="13.2001953125" gradientUnits="userSpaceOnUse" id="linearGradient3367" xlink:href="#linearGradient4174"/>
  </defs>
  
<g class="currentLayer" style=""><title>Layer 1</title><g id="g3422" class="">
    <g id="Page-1" stroke="none" stroke-width="1" fill="none" fill-rule="evenodd" sketch:type="MSPage" transform="">
      <g id="opt-2" sketch:type="MSLayerGroup" transform="">
        <g id="icon" sketch:type="MSShapeGroup" transform="">
          <circle id="Oval-1" fill="url(#linearGradient-1)" transform="translate(0.13986, 0.13986) translate(-0.699301, 0.13986) translate(484.912, 482) translate(-484, -482) translate(41, 41) scale(-1, 1) translate(-41, -41)" cx="41" cy="41" r="41"/>
          <path d="M32.48679541051388,45.487207397818565 L51.2865085452795,45.487207397818565 L53.84040258824825,35.46209143102169 L29.849220260977745,35.46209143102169 L32.48679541051388,45.487207397818565 zM32.80161474645138,53.46813391149044 C32.28864477574825,53.46813391149044 31.872535690665245,53.885339722037315 31.872535690665245,54.39721105992794 C31.872535690665245,54.910181030631065 32.28864477574825,55.32628820836544 32.80161474645138,55.32628820836544 C33.313486084342,55.32628820836544 33.73069189488888,54.910181030631065 33.73069189488888,54.39721105992794 C33.73069189488888,53.885339722037315 33.313486084342,53.46813391149044 32.80161474645138,53.46813391149044 L32.80161474645138,53.46813391149044 zM49.70682714879513,53.46813391149044 C49.1949558109045,53.46813391149044 48.77775000035763,53.885339722037315 48.77775000035763,54.39721105992794 C48.77775000035763,54.910181030631065 49.1949558109045,55.32628820836544 49.70682714879513,55.32628820836544 C50.21872900426388,55.32628820836544 50.63593481481075,54.910181030631065 50.63593481481075,54.39721105992794 C50.63593481481075,53.885339722037315 50.21872900426388,53.46813391149044 49.70682714879513,53.46813391149044 L49.70682714879513,53.46813391149044 zM49.70682714879513,58.078332886099815 C47.67691992223263,58.078332886099815 46.02570532262325,56.42711828649044 46.02570532262325,54.39721105992794 C46.02570532262325,54.076868042349815 46.06644628942013,53.765344604849815 46.14350317418575,53.46813391149044 L36.36384008824825,53.46813391149044 C36.44089697301388,53.765344604849815 36.48273657262325,54.076868042349815 36.48273657262325,54.39721105992794 C36.48273657262325,56.42711828649044 34.83152197301388,58.078332886099815 32.80161474645138,58.078332886099815 C30.771705612540245,58.078332886099815 29.12049101293087,56.42711828649044 29.12049101293087,54.39721105992794 C29.12049101293087,52.971643432974815 29.935096725821495,51.733240112662315 31.12287138402462,51.121179565787315 L30.14643095433712,47.40813635289669 C30.092506393790245,47.28484533727169 30.057289108633995,47.151636108756065 30.04187773168087,47.01183508336544 L25.575843796133995,30.031764969229698 L21.816566452383995,30.031764969229698 C21.05591581761837,30.031764969229698 20.44055937230587,29.415309891104698 20.44055937230587,28.655727371573448 C20.44055937230587,27.896175369620323 21.05591581761837,27.279720291495323 21.816566452383995,27.279720291495323 L26.63703154027462,27.279720291495323 C27.261207565665245,27.279720291495323 27.808326706290245,27.701320633292198 27.967933639883995,28.305690750479698 L29.12598417699337,32.710046753287315 L55.61161230504513,32.710046753287315 C56.03653906285763,32.710046753287315 56.43723486363888,32.90600012242794 56.6981296390295,33.240625366568565 C56.95792578160763,33.576379761099815 57.04926489293575,34.01342199742794 56.9447116702795,34.42510412633419 L53.6895847171545,47.20336340367794 C53.53437231481075,47.81212805211544 52.98505590856075,48.23925207555294 52.35648535192013,48.23925207555294 L33.21109960973263,48.23925207555294 L33.862802490592,50.716089233756065 L49.70682714879513,50.716089233756065 L49.70902441442013,50.716089233756065 C51.73783300817013,50.717187866568565 53.38797949254513,52.36840246617794 53.38797949254513,54.39721105992794 C53.38797949254513,56.42711828649044 51.73673437535763,58.078332886099815 49.70682714879513,58.078332886099815 L49.70682714879513,58.078332886099815 z" id="icon-mask" fill="#FBE9FF"/>
        </g>
      </g>
    </g>
    <g id="g3416">
      <flowRoot style="font-style: normal; font-weight: normal; font-size: 5px; line-height: 125%; font-family: sans-serif; letter-spacing: 0px; word-spacing: 0px; fill: url(&quot;#linearGradient4188&quot;) none; fill-opacity: 1; stroke: none; stroke-width: 1px; stroke-linecap: butt; stroke-linejoin: miter; stroke-opacity: 1;" id="flowRoot4166" xml:space="preserve"><flowRegion style="fill: url(&quot;#linearGradient4184&quot;) none; fill-opacity: 1;" id="flowRegion4168"><rect style="font-size: 5px; fill: url(&quot;#linearGradient4182&quot;) none; fill-opacity: 1;" y="20.449073791503906" x="12.686824798583984" height="14.867369651794434" width="17.444381713867188" id="rect4170"/></flowRegion><flowPara style="font-size: 10px; fill: url(&quot;#linearGradient3367&quot;) none; fill-opacity: 1;" id="flowPara4172">++</flowPara></flowRoot>    </g>
  </g><path fill="#ffffff" fill-opacity="1" stroke="#ffffff" stroke-opacity="1" stroke-width="1" stroke-dasharray="none" stroke-linejoin="miter" stroke-linecap="butt" stroke-dashoffset="" fill-rule="nonzero" opacity="1" marker-start="" marker-mid="" marker-end="" d="M34.786712646484375,40.51468273997307 L41.499996185302734,40.51468273997307 " id="svg_8" class=""/><path fill="#ffffff" fill-opacity="1" stroke="#ffffff" stroke-opacity="1" stroke-width="1" stroke-dasharray="none" stroke-linejoin="miter" stroke-linecap="butt" stroke-dashoffset="" fill-rule="nonzero" opacity="1" marker-start="" marker-mid="" marker-end="" d="M38.14335435628891,37.29789923131466 L38.14335435628891,43.87132452428341 " id="svg_10" class=""/><path fill="#ffffff" fill-opacity="1" stroke="#ffffff" stroke-opacity="1" stroke-width="1" stroke-dasharray="none" stroke-linejoin="miter" stroke-linecap="butt" stroke-dashoffset="" fill-rule="nonzero" opacity="1" marker-start="" marker-mid="" marker-end="" d="M46.67482382059097,37.29790115356445 L46.67482382059097,43.73146438598633 " id="svg_12" class=""/><path fill="#ffffff" fill-opacity="1" stroke="#ffffff" stroke-opacity="1" stroke-width="1" stroke-dasharray="none" stroke-linejoin="miter" stroke-linecap="butt" stroke-dashoffset="" fill-rule="nonzero" opacity="1" marker-start="" marker-mid="" marker-end="" d="M43.178321838378906,40.51468466222286 L49.89160919189453,40.51468466222286 " id="svg_18" class=""/></g></svg>