<svg xmlns="http://www.w3.org/2000/svg" width="544.2" height="544.2" viewBox="0 0 544.2 544.2"><title>icon</title><title>Layer 1</title><title>Layer 1</title><path d="M272.5.4C2.5.4.4 122.3.4 272.6s2.1 272.1 272.1 272.1 272.1-121.8 272.1-272.1S542.5.4 272.5.4z" fill="#553663"/><g fill="#fff"><path d="M281.3 198.1c0-4.8.3-9.5 1-14.1H172l-10.6-40.4c-1.5-5.5-6.5-9.4-12.2-9.4H105c-7 0-12.6 5.7-12.6 12.6 0 7 5.6 12.6 12.6 12.6h34.5l40.9 155.7c.1 1.3.5 2.5 1 3.6l9 34c-10.9 5.6-18.4 17-18.4 30 0 18.6 15.1 33.8 33.8 33.8s33.8-15.1 33.8-33.8c0-2.9-.4-5.8-1.1-8.5h89.7c-.7 2.7-1.1 5.6-1.1 8.5 0 18.6 15.1 33.8 33.8 33.8 18.6 0 33.8-15.1 33.8-33.8 0-18.6-15.1-33.7-33.7-33.8H215.5l-6-22.7H385c5.8 0 10.8-3.9 12.2-9.5l4.8-18.9c-6.2 1.2-12.6 1.8-19.1 1.8-56.1.2-101.6-45.3-101.6-101.5z"/><path d="M383 128.5c-33.6 0-61.6 23.8-68.2 55.5-.9 4.6-1.4 9.3-1.4 14.1 0 38.4 31.2 69.6 69.6 69.6 10.1 0 19.7-2.2 28.3-6 24.3-10.9 41.3-35.2 41.3-63.6 0-38.4-31.2-69.6-69.6-69.6zm36.8 75.8c0 2.3-1.8 4.1-4.1 4.1h-22.5v22.5c0 2.3-1.8 4.1-4.1 4.1h-12.3c-2.3 0-4.1-1.8-4.1-4.1v-22.5h-22.5c-2.3 0-4.1-1.8-4.1-4.1V192c0-2.3 1.8-4.1 4.1-4.1h22.5v-22.5c0-2.3 1.8-4.1 4.1-4.1h12.3c2.3 0 4.1 1.8 4.1 4.1v22.5h22.5c2.3 0 4.1 1.8 4.1 4.1v12.3z"/></g></svg>